<svg width="53" height="52" viewBox="0 0 53 52" fill="none" xmlns="http://www.w3.org/2000/svg">
<path d="M34.5 19.9656V17.011C34.5 16.0903 34.2931 15.1786 33.891 14.328C33.489 13.4774 32.8997 12.7045 32.1569 12.0535C31.414 11.4024 30.5321 10.886 29.5615 10.5337C28.5909 10.1813 27.5506 10 26.5 10C25.4494 10 24.4091 10.1813 23.4385 10.5337C22.4679 10.886 21.586 11.4024 20.8431 12.0535C20.1003 12.7045 19.511 13.4774 19.109 14.328C18.7069 15.1786 18.5 16.0903 18.5 17.011V24.0219C18.5 24.2875 18.6204 24.5423 18.8347 24.7301C19.0491 24.918 19.3398 25.0235 19.6429 25.0235C19.946 25.0235 20.2367 24.918 20.451 24.7301C20.6653 24.5423 20.7857 24.2875 20.7857 24.0219V21.9687H29.9286V19.9656H20.7857V17.011C20.7857 15.6828 21.3878 14.409 22.4594 13.4699C23.531 12.5307 24.9845 12.0031 26.5 12.0031C28.0155 12.0031 29.469 12.5307 30.5406 13.4699C31.6122 14.409 32.2143 15.6828 32.2143 17.011V23.9718C32.2143 24.2375 32.3347 24.4922 32.549 24.68C32.7633 24.8679 33.054 24.9734 33.3571 24.9734C33.6602 24.9734 33.9509 24.8679 34.1653 24.68C34.3796 24.4922 34.5 24.2375 34.5 23.9718V21.9687H40.2143V39.9969H12.7857V21.9687H16.2143V19.9656H10.5V40.087C10.5 40.5944 10.73 41.0809 11.1393 41.4397C11.5487 41.7985 12.1039 42 12.6829 42H40.3171C40.8961 42 41.4513 41.7985 41.8607 41.4397C42.27 41.0809 42.5 40.5944 42.5 40.087V19.9656H34.5Z" fill="white"/>
</svg>
