<svg width="53" height="52" viewBox="0 0 53 52" fill="none" xmlns="http://www.w3.org/2000/svg">
<path d="M33.87 12.56C34.7019 12.5592 35.5256 12.7445 36.2928 13.105C37.06 13.4654 37.7552 13.9938 38.3377 14.6592C39.538 16.0242 40.2107 17.8632 40.2107 19.7792C40.2107 21.6952 39.538 23.5342 38.3377 24.8992L26.5 38.3264L14.6623 24.8992C13.462 23.5342 12.7893 21.6952 12.7893 19.7792C12.7893 17.8632 13.462 16.0242 14.6623 14.6592C15.2451 13.9943 15.9404 13.4662 16.7075 13.1057C17.4746 12.7451 18.2981 12.5595 19.13 12.5595C19.9619 12.5595 20.7854 12.7451 21.5525 13.1057C22.3196 13.4662 23.0149 13.9943 23.5977 14.6592L26.5 17.9872L29.3909 14.6848C29.9716 14.0115 30.6676 13.4763 31.4372 13.1112C32.2068 12.7461 33.0342 12.5587 33.87 12.56ZM33.87 10C32.7338 9.99892 31.6088 10.252 30.5611 10.7443C29.5133 11.2367 28.5638 11.9584 27.7683 12.8672L26.5 14.3008L25.2317 12.8672C24.4352 11.96 23.4855 11.2396 22.4379 10.7478C21.3903 10.256 20.2658 10.0027 19.13 10.0027C17.9941 10.0027 16.8697 10.256 15.8221 10.7478C14.7745 11.2396 13.8248 11.96 13.0283 12.8672C11.4079 14.715 10.5 17.2017 10.5 19.792C10.5 22.3823 11.4079 24.869 13.0283 26.7168L26.5 42L39.9717 26.7168C41.5921 24.869 42.5 22.3823 42.5 19.792C42.5 17.2017 41.5921 14.715 39.9717 12.8672C39.1754 11.9596 38.2258 11.2386 37.1782 10.7463C36.1306 10.2541 35.006 10.0004 33.87 10Z" fill="white"/>
</svg>
