<svg width="292" height="13" viewBox="0 0 292 13" fill="none" xmlns="http://www.w3.org/2000/svg">
<path d="M3 6.68182C3 6.06061 3.15152 5.49432 3.45455 4.98295C3.75758 4.47159 4.16477 4.06439 4.67614 3.76136C5.1875 3.45833 5.75379 3.30682 6.375 3.30682C6.91288 3.30682 7.40909 3.42235 7.86364 3.65341C8.32197 3.88447 8.70076 4.20076 9 4.60227C9.29924 5 9.48485 5.45076 9.55682 5.95455H8.18182C8.10606 5.56439 7.89583 5.24621 7.55114 5C7.20644 4.75 6.81439 4.625 6.375 4.625C5.99621 4.625 5.65152 4.7178 5.34091 4.90341C5.0303 5.08902 4.7822 5.33712 4.59659 5.64773C4.41098 5.95833 4.31818 6.30303 4.31818 6.68182C4.31818 7.06061 4.41098 7.4053 4.59659 7.71591C4.7822 8.02652 5.0303 8.27462 5.34091 8.46023C5.65152 8.64583 5.99621 8.73864 6.375 8.73864C6.81439 8.73864 7.18561 8.61553 7.48864 8.36932C7.79545 8.11932 7.98864 7.79924 8.06818 7.40909H9.44318C9.37121 7.91288 9.19508 8.36553 8.91477 8.76705C8.63447 9.16477 8.27462 9.47917 7.83523 9.71023C7.39962 9.94129 6.91288 10.0568 6.375 10.0568C5.75379 10.0568 5.1875 9.9053 4.67614 9.60227C4.16477 9.29924 3.75758 8.89205 3.45455 8.38068C3.15152 7.86932 3 7.30303 3 6.68182ZM6.31818 12.6818C5.49242 12.6818 4.71591 12.5265 3.98864 12.2159C3.26515 11.9053 2.62689 11.4754 2.07386 10.9261C1.52462 10.3731 1.0928 9.73485 0.778409 9.01136C0.467803 8.28788 0.314394 7.51136 0.318182 6.68182C0.32197 5.85227 0.479167 5.07576 0.789773 4.35227C1.10417 3.62879 1.53598 2.99242 2.08523 2.44318C2.63447 1.89015 3.27083 1.45833 3.99432 1.14773C4.7178 0.837121 5.49242 0.681818 6.31818 0.681818C7.14773 0.681818 7.92424 0.837121 8.64773 1.14773C9.375 1.45833 10.0114 1.89015 10.5568 2.44318C11.1061 2.99242 11.536 3.62879 11.8466 4.35227C12.1572 5.07576 12.3144 5.85227 12.3182 6.68182C12.322 7.51136 12.1686 8.28788 11.858 9.01136C11.5473 9.73485 11.1174 10.3731 10.5682 10.9261C10.0189 11.4754 9.38068 11.9053 8.65341 12.2159C7.92614 12.5265 7.14773 12.6818 6.31818 12.6818ZM6.31818 11.3636C6.96591 11.3636 7.57386 11.2424 8.14205 11C8.71023 10.7576 9.20833 10.4223 9.63636 9.99432C10.0644 9.56629 10.3996 9.07008 10.642 8.50568C10.8845 7.9375 11.0038 7.33144 11 6.6875C10.9962 6.03977 10.8731 5.43182 10.6307 4.86364C10.3883 4.29545 10.053 3.79735 9.625 3.36932C9.19697 2.94129 8.70076 2.60606 8.13636 2.36364C7.57197 2.12121 6.96591 2 6.31818 2C5.67424 2 5.07008 2.12121 4.50568 2.36364C3.94129 2.60606 3.44508 2.94318 3.01705 3.375C2.58902 3.80303 2.25189 4.30114 2.00568 4.86932C1.76326 5.43371 1.64015 6.03977 1.63636 6.6875C1.63258 7.32765 1.75189 7.93182 1.99432 8.5C2.23674 9.06439 2.57197 9.56061 3 9.98864C3.43182 10.4167 3.92992 10.7538 4.49432 11C5.0625 11.2424 5.67045 11.3636 6.31818 11.3636ZM19.5132 12.5V11.4773L23.3541 7.27273C23.8048 6.7803 24.176 6.35227 24.4677 5.98864C24.7594 5.62121 24.9753 5.27652 25.1154 4.95455C25.2594 4.62879 25.3314 4.28788 25.3314 3.93182C25.3314 3.52273 25.2329 3.16856 25.0359 2.86932C24.8427 2.57008 24.5776 2.33901 24.2404 2.17614C23.9033 2.01326 23.5245 1.93182 23.1041 1.93182C22.6571 1.93182 22.267 2.02462 21.9336 2.21023C21.6041 2.39205 21.3484 2.64773 21.1666 2.97727C20.9885 3.30682 20.8995 3.69318 20.8995 4.13636H19.5586C19.5586 3.45455 19.7158 2.85606 20.0302 2.34091C20.3446 1.82576 20.7726 1.42424 21.3143 1.13636C21.8598 0.848484 22.4715 0.704545 23.1495 0.704545C23.8314 0.704545 24.4355 0.848484 24.962 1.13636C25.4885 1.42424 25.9014 1.8125 26.2007 2.30114C26.4999 2.78977 26.6495 3.33333 26.6495 3.93182C26.6495 4.35985 26.5719 4.77841 26.4166 5.1875C26.2651 5.5928 25.9999 6.04545 25.6211 6.54545C25.2461 7.04167 24.7253 7.64773 24.0586 8.36364L21.445 11.1591V11.25H26.8541V12.5H19.5132ZM33.0801 12.6591C32.2241 12.6591 31.4949 12.4261 30.8926 11.9602C30.2904 11.4905 29.8301 10.8106 29.5119 9.92045C29.1938 9.02652 29.0347 7.94697 29.0347 6.68182C29.0347 5.42424 29.1938 4.35038 29.5119 3.46023C29.8339 2.56629 30.296 1.88447 30.8983 1.41477C31.5044 0.941287 32.2316 0.704545 33.0801 0.704545C33.9286 0.704545 34.654 0.941287 35.2563 1.41477C35.8623 1.88447 36.3244 2.56629 36.6426 3.46023C36.9646 4.35038 37.1256 5.42424 37.1256 6.68182C37.1256 7.94697 36.9665 9.02652 36.6483 9.92045C36.3301 10.8106 35.8699 11.4905 35.2676 11.9602C34.6654 12.4261 33.9362 12.6591 33.0801 12.6591ZM33.0801 11.4091C33.9286 11.4091 34.5877 11 35.0574 10.1818C35.5271 9.36364 35.7619 8.19697 35.7619 6.68182C35.7619 5.67424 35.654 4.81629 35.4381 4.10795C35.226 3.39962 34.9191 2.85985 34.5176 2.48864C34.1199 2.11742 33.6407 1.93182 33.0801 1.93182C32.2392 1.93182 31.582 2.34659 31.1085 3.17614C30.6351 4.00189 30.3983 5.17045 30.3983 6.68182C30.3983 7.68939 30.5044 8.54545 30.7165 9.25C30.9286 9.95455 31.2335 10.4905 31.6313 10.858C32.0328 11.2254 32.5157 11.4091 33.0801 11.4091ZM39.3687 12.5V11.4773L43.2096 7.27273C43.6603 6.7803 44.0315 6.35227 44.3232 5.98864C44.6149 5.62121 44.8308 5.27652 44.9709 4.95455C45.1149 4.62879 45.1869 4.28788 45.1869 3.93182C45.1869 3.52273 45.0884 3.16856 44.8914 2.86932C44.6982 2.57008 44.4331 2.33901 44.0959 2.17614C43.7588 2.01326 43.38 1.93182 42.9596 1.93182C42.5126 1.93182 42.1225 2.02462 41.7891 2.21023C41.4596 2.39205 41.2039 2.64773 41.0221 2.97727C40.844 3.30682 40.755 3.69318 40.755 4.13636H39.4141C39.4141 3.45455 39.5713 2.85606 39.8857 2.34091C40.2001 1.82576 40.6281 1.42424 41.1698 1.13636C41.7153 0.848484 42.327 0.704545 43.005 0.704545C43.6869 0.704545 44.291 0.848484 44.8175 1.13636C45.344 1.42424 45.7569 1.8125 46.0562 2.30114C46.3554 2.78977 46.505 3.33333 46.505 3.93182C46.505 4.35985 46.4274 4.77841 46.2721 5.1875C46.1206 5.5928 45.8554 6.04545 45.4766 6.54545C45.1016 7.04167 44.5808 7.64773 43.9141 8.36364L41.3005 11.1591V11.25H46.7096V12.5H39.3687ZM53.072 12.6591C52.322 12.6591 51.6534 12.5303 51.0663 12.2727C50.483 12.0152 50.019 11.6572 49.6743 11.1989C49.3334 10.7367 49.1477 10.2008 49.1174 9.59091H50.5493C50.5796 9.96591 50.7084 10.2898 50.9356 10.5625C51.1629 10.8314 51.4602 11.0398 51.8277 11.1875C52.1951 11.3352 52.6023 11.4091 53.0493 11.4091C53.5493 11.4091 53.9924 11.322 54.3788 11.1477C54.7652 10.9735 55.0682 10.7311 55.2879 10.4205C55.5076 10.1098 55.6174 9.75 55.6174 9.34091C55.6174 8.91288 55.5114 8.53598 55.2993 8.21023C55.0871 7.88068 54.7765 7.62311 54.3674 7.4375C53.9584 7.25189 53.4584 7.15909 52.8674 7.15909H51.9356V5.90909H52.8674C53.3296 5.90909 53.7349 5.82576 54.0834 5.65909C54.4356 5.49242 54.7102 5.25758 54.9072 4.95455C55.108 4.65152 55.2084 4.29545 55.2084 3.88636C55.2084 3.49242 55.1212 3.14962 54.947 2.85795C54.7727 2.56629 54.5265 2.33901 54.2084 2.17614C53.894 2.01326 53.5227 1.93182 53.0947 1.93182C52.6932 1.93182 52.3144 2.00568 51.9584 2.15341C51.6061 2.29735 51.3182 2.50758 51.0947 2.78409C50.8712 3.05682 50.75 3.38636 50.7311 3.77273H49.3674C49.3902 3.16288 49.5739 2.62879 49.9186 2.17045C50.2633 1.70833 50.714 1.34848 51.2709 1.09091C51.8315 0.833333 52.447 0.704545 53.1174 0.704545C53.8371 0.704545 54.4546 0.850378 54.9697 1.14205C55.4849 1.42992 55.8807 1.81061 56.1572 2.28409C56.4337 2.75758 56.572 3.26894 56.572 3.81818C56.572 4.47348 56.3996 5.0322 56.0549 5.49432C55.714 5.95644 55.25 6.27652 54.6629 6.45455V6.54545C55.3977 6.66667 55.9716 6.97917 56.3845 7.48295C56.7974 7.98295 57.0038 8.60227 57.0038 9.34091C57.0038 9.97348 56.8315 10.5417 56.4868 11.0455C56.1459 11.5455 55.6799 11.9394 55.089 12.2273C54.4981 12.5152 53.8258 12.6591 53.072 12.6591ZM64.2002 12.5V0.863636H65.6093V6.04545H71.8139V0.863636H73.2229V12.5H71.8139V7.29545H65.6093V12.5H64.2002ZM76.6052 12.5H75.128L79.4007 0.863636H80.8552L85.128 12.5H83.6507L80.1734 2.70455H80.0825L76.6052 12.5ZM77.1507 7.95455H83.1052V9.20455H77.1507V7.95455ZM95.8412 4.5H94.4321C94.3488 4.0947 94.203 3.73864 93.9946 3.43182C93.7901 3.125 93.5401 2.86742 93.2446 2.65909C92.953 2.44697 92.6291 2.28788 92.273 2.18182C91.917 2.07576 91.5458 2.02273 91.1594 2.02273C90.4549 2.02273 89.8166 2.20076 89.2446 2.55682C88.6765 2.91288 88.2238 3.4375 87.8867 4.13068C87.5533 4.82386 87.3867 5.67424 87.3867 6.68182C87.3867 7.68939 87.5533 8.53977 87.8867 9.23295C88.2238 9.92614 88.6765 10.4508 89.2446 10.8068C89.8166 11.1629 90.4549 11.3409 91.1594 11.3409C91.5458 11.3409 91.917 11.2879 92.273 11.1818C92.6291 11.0758 92.953 10.9186 93.2446 10.7102C93.5401 10.4981 93.7901 10.2386 93.9946 9.93182C94.203 9.62121 94.3488 9.26515 94.4321 8.86364H95.8412C95.7352 9.45833 95.542 9.99053 95.2617 10.4602C94.9814 10.9299 94.6329 11.3295 94.2162 11.6591C93.7996 11.9848 93.3318 12.233 92.8128 12.4034C92.2977 12.5739 91.7465 12.6591 91.1594 12.6591C90.167 12.6591 89.2844 12.4167 88.5117 11.9318C87.739 11.447 87.131 10.7576 86.6878 9.86364C86.2446 8.9697 86.023 7.90909 86.023 6.68182C86.023 5.45455 86.2446 4.39394 86.6878 3.5C87.131 2.60606 87.739 1.91667 88.5117 1.43182C89.2844 0.946969 90.167 0.704545 91.1594 0.704545C91.7465 0.704545 92.2977 0.789772 92.8128 0.960227C93.3318 1.13068 93.7996 1.38068 94.2162 1.71023C94.6329 2.03598 94.9814 2.43371 95.2617 2.90341C95.542 3.36932 95.7352 3.90151 95.8412 4.5ZM98.2022 12.5V0.863636H99.6113V6.63636H99.7477L104.975 0.863636H106.816L101.929 6.11364L106.816 12.5H105.111L101.066 7.09091L99.6113 8.72727V12.5H98.2022ZM109.201 12.5H107.724L111.996 0.863636H113.451L117.724 12.5H116.246L112.769 2.70455H112.678L109.201 12.5ZM109.746 7.95455H115.701V9.20455H109.746V7.95455ZM117.624 2.11364V0.863636H126.352V2.11364H122.693V12.5H121.284V2.11364H117.624ZM128.61 12.5V0.863636H130.02V6.04545H136.224V0.863636H137.633V12.5H136.224V7.29545H130.02V12.5H128.61ZM150.356 6.68182C150.356 7.90909 150.135 8.9697 149.692 9.86364C149.248 10.7576 148.64 11.447 147.868 11.9318C147.095 12.4167 146.212 12.6591 145.22 12.6591C144.228 12.6591 143.345 12.4167 142.572 11.9318C141.8 11.447 141.192 10.7576 140.748 9.86364C140.305 8.9697 140.084 7.90909 140.084 6.68182C140.084 5.45455 140.305 4.39394 140.748 3.5C141.192 2.60606 141.8 1.91667 142.572 1.43182C143.345 0.946969 144.228 0.704545 145.22 0.704545C146.212 0.704545 147.095 0.946969 147.868 1.43182C148.64 1.91667 149.248 2.60606 149.692 3.5C150.135 4.39394 150.356 5.45455 150.356 6.68182ZM148.993 6.68182C148.993 5.67424 148.824 4.82386 148.487 4.13068C148.154 3.4375 147.701 2.91288 147.129 2.55682C146.561 2.20076 145.925 2.02273 145.22 2.02273C144.515 2.02273 143.877 2.20076 143.305 2.55682C142.737 2.91288 142.284 3.4375 141.947 4.13068C141.614 4.82386 141.447 5.67424 141.447 6.68182C141.447 7.68939 141.614 8.53977 141.947 9.23295C142.284 9.92614 142.737 10.4508 143.305 10.8068C143.877 11.1629 144.515 11.3409 145.22 11.3409C145.925 11.3409 146.561 11.1629 147.129 10.8068C147.701 10.4508 148.154 9.92614 148.487 9.23295C148.824 8.53977 148.993 7.68939 148.993 6.68182ZM162.037 0.863636V12.5H160.673L154.332 3.36364H154.219V12.5H152.81V0.863636H154.173L160.537 10.0227H160.651V0.863636H162.037ZM169.525 12.5V0.863636H173.593C174.403 0.863636 175.072 1.00379 175.598 1.28409C176.125 1.56061 176.517 1.93371 176.775 2.40341C177.032 2.86932 177.161 3.38636 177.161 3.95455C177.161 4.45455 177.072 4.86742 176.894 5.19318C176.72 5.51894 176.489 5.77652 176.201 5.96591C175.917 6.1553 175.608 6.29545 175.275 6.38636V6.5C175.631 6.52273 175.989 6.64773 176.348 6.875C176.708 7.10227 177.009 7.42803 177.252 7.85227C177.494 8.27651 177.615 8.79545 177.615 9.40909C177.615 9.99242 177.483 10.517 177.218 10.983C176.953 11.4489 176.534 11.8182 175.962 12.0909C175.39 12.3636 174.646 12.5 173.729 12.5H169.525ZM170.934 11.25H173.729C174.65 11.25 175.303 11.072 175.689 10.7159C176.08 10.3561 176.275 9.92045 176.275 9.40909C176.275 9.01515 176.174 8.65152 175.973 8.31818C175.773 7.98106 175.487 7.71212 175.115 7.51136C174.744 7.30682 174.305 7.20455 173.797 7.20455H170.934V11.25ZM170.934 5.97727H173.547C173.972 5.97727 174.354 5.89394 174.695 5.72727C175.04 5.56061 175.312 5.32576 175.513 5.02273C175.718 4.7197 175.82 4.36364 175.82 3.95455C175.82 3.44318 175.642 3.00947 175.286 2.65341C174.93 2.29356 174.365 2.11364 173.593 2.11364H170.934V5.97727ZM179.015 0.863636H180.628L183.856 6.29545H183.992L187.219 0.863636H188.833L184.628 7.70455V12.5H183.219V7.70455L179.015 0.863636ZM195.323 0.863636H197.005L200.96 10.5227H201.096L205.051 0.863636H206.733V12.5H205.414V3.65909H205.301L201.664 12.5H200.392L196.755 3.65909H196.642V12.5H195.323V0.863636ZM210.119 12.5H208.642L212.915 0.863636H214.369L218.642 12.5H217.165L213.687 2.70455H213.596L210.119 12.5ZM210.665 7.95455H216.619V9.20455H210.665V7.95455ZM220.538 12.5V0.863636H224.47C225.379 0.863636 226.125 1.01894 226.709 1.32955C227.292 1.63636 227.724 2.05871 228.004 2.59659C228.285 3.13447 228.425 3.74621 228.425 4.43182C228.425 5.11742 228.285 5.72538 228.004 6.25568C227.724 6.78598 227.294 7.20265 226.714 7.50568C226.135 7.80492 225.394 7.95455 224.493 7.95455H221.311V6.68182H224.447C225.069 6.68182 225.569 6.59091 225.947 6.40909C226.33 6.22727 226.607 5.9697 226.777 5.63636C226.951 5.29924 227.038 4.89773 227.038 4.43182C227.038 3.96591 226.951 3.55871 226.777 3.21023C226.603 2.86174 226.324 2.5928 225.942 2.40341C225.559 2.21023 225.053 2.11364 224.425 2.11364H221.947V12.5H220.538ZM226.016 7.27273L228.879 12.5H227.243L224.425 7.27273H226.016ZM230.857 12.5V0.863636H232.266V6.63636H232.402L237.629 0.863636H239.47L234.584 6.11364L239.47 12.5H237.766L233.72 7.09091L232.266 8.72727V12.5H230.857ZM241.378 12.5V0.863636H248.401V2.11364H242.787V6.04545H248.037V7.29545H242.787V11.25H248.492V12.5H241.378ZM250.388 2.11364V0.863636H259.116V2.11364H255.457V12.5H254.047V2.11364H250.388ZM261.374 12.5V0.863636H268.397V2.11364H262.783V6.04545H268.033V7.29545H262.783V11.25H268.488V12.5H261.374ZM280.384 4.5H278.975C278.892 4.0947 278.746 3.73864 278.538 3.43182C278.333 3.125 278.083 2.86742 277.788 2.65909C277.496 2.44697 277.172 2.28788 276.816 2.18182C276.46 2.07576 276.089 2.02273 275.703 2.02273C274.998 2.02273 274.36 2.20076 273.788 2.55682C273.22 2.91288 272.767 3.4375 272.43 4.13068C272.097 4.82386 271.93 5.67424 271.93 6.68182C271.93 7.68939 272.097 8.53977 272.43 9.23295C272.767 9.92614 273.22 10.4508 273.788 10.8068C274.36 11.1629 274.998 11.3409 275.703 11.3409C276.089 11.3409 276.46 11.2879 276.816 11.1818C277.172 11.0758 277.496 10.9186 277.788 10.7102C278.083 10.4981 278.333 10.2386 278.538 9.93182C278.746 9.62121 278.892 9.26515 278.975 8.86364H280.384C280.278 9.45833 280.085 9.99053 279.805 10.4602C279.525 10.9299 279.176 11.3295 278.759 11.6591C278.343 11.9848 277.875 12.233 277.356 12.4034C276.841 12.5739 276.29 12.6591 275.703 12.6591C274.71 12.6591 273.828 12.4167 273.055 11.9318C272.282 11.447 271.674 10.7576 271.231 9.86364C270.788 8.9697 270.566 7.90909 270.566 6.68182C270.566 5.45455 270.788 4.39394 271.231 3.5C271.674 2.60606 272.282 1.91667 273.055 1.43182C273.828 0.946969 274.71 0.704545 275.703 0.704545C276.29 0.704545 276.841 0.789772 277.356 0.960227C277.875 1.13068 278.343 1.38068 278.759 1.71023C279.176 2.03598 279.525 2.43371 279.805 2.90341C280.085 3.36932 280.278 3.90151 280.384 4.5ZM282.745 12.5V0.863636H284.155V6.04545H290.359V0.863636H291.768V12.5H290.359V7.29545H284.155V12.5H282.745Z" fill="#858585"/>
</svg>
