<svg width="52" height="52" viewBox="0 0 52 52" fill="none" xmlns="http://www.w3.org/2000/svg">
<path d="M34 19.9656V17.011C34 16.0903 33.7931 15.1786 33.391 14.328C32.989 13.4774 32.3997 12.7045 31.6569 12.0535C30.914 11.4024 30.0321 10.886 29.0615 10.5337C28.0909 10.1813 27.0506 10 26 10C24.9494 10 23.9091 10.1813 22.9385 10.5337C21.9679 10.886 21.086 11.4024 20.3431 12.0535C19.6003 12.7045 19.011 13.4774 18.609 14.328C18.2069 15.1786 18 16.0903 18 17.011V24.0219C18 24.2875 18.1204 24.5423 18.3347 24.7301C18.5491 24.918 18.8398 25.0235 19.1429 25.0235C19.446 25.0235 19.7367 24.918 19.951 24.7301C20.1653 24.5423 20.2857 24.2875 20.2857 24.0219V21.9687H29.4286V19.9656H20.2857V17.011C20.2857 15.6828 20.8878 14.409 21.9594 13.4699C23.031 12.5307 24.4845 12.0031 26 12.0031C27.5155 12.0031 28.969 12.5307 30.0406 13.4699C31.1122 14.409 31.7143 15.6828 31.7143 17.011V23.9718C31.7143 24.2375 31.8347 24.4922 32.049 24.68C32.2633 24.8679 32.554 24.9734 32.8571 24.9734C33.1602 24.9734 33.4509 24.8679 33.6653 24.68C33.8796 24.4922 34 24.2375 34 23.9718V21.9687H39.7143V39.9969H12.2857V21.9687H15.7143V19.9656H10V40.087C10 40.5944 10.23 41.0809 10.6393 41.4397C11.0487 41.7985 11.6039 42 12.1829 42H39.8171C40.3961 42 40.9513 41.7985 41.3607 41.4397C41.77 41.0809 42 40.5944 42 40.087V19.9656H34Z" fill="#4BB9BC"/>
</svg>
