<svg width="47" height="46" viewBox="0 0 47 46" fill="none" xmlns="http://www.w3.org/2000/svg">
<path d="M29.4881 12.08C30.1641 12.0794 30.8333 12.2299 31.4567 12.5228C32.08 12.8157 32.6449 13.245 33.1181 13.7856C34.0933 14.8946 34.64 16.3889 34.64 17.9456C34.64 19.5023 34.0933 20.9966 33.1181 22.1056L23.5 33.0152L13.8819 22.1056C12.9067 20.9966 12.36 19.5023 12.36 17.9456C12.36 16.3889 12.9067 14.8946 13.8819 13.7856C14.3554 13.2454 14.9203 12.8163 15.5436 12.5233C16.1669 12.2304 16.836 12.0796 17.5119 12.0796C18.1878 12.0796 18.8569 12.2304 19.4801 12.5233C20.1034 12.8163 20.6683 13.2454 21.1419 13.7856L23.5 16.4896L25.8488 13.8064C26.3207 13.2593 26.8862 12.8245 27.5115 12.5279C28.1368 12.2312 28.8091 12.0789 29.4881 12.08ZM29.4881 10C28.565 9.99913 27.6509 10.2047 26.7996 10.6048C25.9483 11.0048 25.1769 11.5912 24.5305 12.3296L23.5 13.4944L22.4695 12.3296C21.8223 11.5925 21.0507 11.0071 20.1996 10.6076C19.3484 10.208 18.4348 10.0022 17.5119 10.0022C16.589 10.0022 15.6753 10.208 14.8242 10.6076C13.973 11.0071 13.2014 11.5925 12.5543 12.3296C11.2377 13.831 10.5 15.8514 10.5 17.956C10.5 20.0606 11.2377 22.081 12.5543 23.5824L23.5 36L34.4457 23.5824C35.7623 22.081 36.5 20.0606 36.5 17.956C36.5 15.8514 35.7623 13.831 34.4457 12.3296C33.7988 11.5921 33.0272 11.0064 32.176 10.6064C31.3249 10.2064 30.4111 10.0003 29.4881 10Z" fill="#737373"/>
</svg>
