<svg width="52" height="52" viewBox="0 0 52 52" fill="none" xmlns="http://www.w3.org/2000/svg">
<path d="M42 42L32.8571 32.8571M23.7143 37.4286C21.9133 37.4286 20.1299 37.0738 18.4661 36.3846C16.8022 35.6954 15.2903 34.6852 14.0168 33.4118C12.7433 32.1383 11.7331 30.6264 11.0439 28.9625C10.3547 27.2986 10 25.5153 10 23.7143C10 21.9133 10.3547 20.1299 11.0439 18.4661C11.7331 16.8022 12.7433 15.2903 14.0168 14.0168C15.2903 12.7433 16.8022 11.7331 18.4661 11.0439C20.1299 10.3547 21.9133 10 23.7143 10C27.3515 10 30.8398 11.4449 33.4118 14.0168C35.9837 16.5887 37.4286 20.077 37.4286 23.7143C37.4286 27.3515 35.9837 30.8398 33.4118 33.4118C30.8398 35.9837 27.3515 37.4286 23.7143 37.4286Z" stroke="#4BB9BC" stroke-width="3"/>
</svg>
