<svg width="47" height="46" viewBox="0 0 47 46" fill="none" xmlns="http://www.w3.org/2000/svg">
<path d="M30 18.097V15.6964C30 14.9483 29.8319 14.2076 29.5052 13.5165C29.1786 12.8254 28.6998 12.1974 28.0962 11.6684C27.4926 11.1395 26.7761 10.7199 25.9874 10.4336C25.1988 10.1473 24.3536 10 23.5 10C22.6464 10 21.8012 10.1473 21.0126 10.4336C20.2239 10.7199 19.5074 11.1395 18.9038 11.6684C18.3002 12.1974 17.8214 12.8254 17.4948 13.5165C17.1681 14.2076 17 14.9483 17 15.6964V21.3928C17 21.6086 17.0978 21.8156 17.272 21.9682C17.4461 22.1208 17.6823 22.2066 17.9286 22.2066C18.1748 22.2066 18.411 22.1208 18.5852 21.9682C18.7593 21.8156 18.8571 21.6086 18.8571 21.3928V19.7246H26.2857V18.097H18.8571V15.6964C18.8571 14.6173 19.3463 13.5823 20.217 12.8193C21.0877 12.0562 22.2686 11.6275 23.5 11.6275C24.7314 11.6275 25.9123 12.0562 26.783 12.8193C27.6537 13.5823 28.1429 14.6173 28.1429 15.6964V21.3521C28.1429 21.5679 28.2407 21.7749 28.4148 21.9275C28.589 22.0801 28.8252 22.1659 29.0714 22.1659C29.3177 22.1659 29.5539 22.0801 29.728 21.9275C29.9022 21.7749 30 21.5679 30 21.3521V19.7246H34.6429V34.3725H12.3571V19.7246H15.1429V18.097H10.5V34.4457C10.5 34.8579 10.6869 35.2533 11.0195 35.5448C11.3521 35.8362 11.8032 36 12.2736 36H34.7264C35.1968 36 35.6479 35.8362 35.9805 35.5448C36.3131 35.2533 36.5 34.8579 36.5 34.4457V18.097H30Z" fill="#4BB9BC"/>
</svg>
