<svg width="52" height="52" viewBox="0 0 52 52" fill="none" xmlns="http://www.w3.org/2000/svg">
<path d="M33.37 12.56C34.2019 12.5592 35.0256 12.7445 35.7928 13.105C36.56 13.4654 37.2552 13.9938 37.8377 14.6592C39.038 16.0242 39.7107 17.8632 39.7107 19.7792C39.7107 21.6952 39.038 23.5342 37.8377 24.8992L26 38.3264L14.1623 24.8992C12.962 23.5342 12.2893 21.6952 12.2893 19.7792C12.2893 17.8632 12.962 16.0242 14.1623 14.6592C14.7451 13.9943 15.4404 13.4662 16.2075 13.1057C16.9746 12.7451 17.7981 12.5595 18.63 12.5595C19.4619 12.5595 20.2854 12.7451 21.0525 13.1057C21.8196 13.4662 22.5149 13.9943 23.0977 14.6592L26 17.9872L28.8909 14.6848C29.4716 14.0115 30.1676 13.4763 30.9372 13.1112C31.7068 12.7461 32.5342 12.5587 33.37 12.56ZM33.37 10C32.2338 9.99892 31.1088 10.252 30.0611 10.7443C29.0133 11.2367 28.0638 11.9584 27.2683 12.8672L26 14.3008L24.7317 12.8672C23.9352 11.96 22.9855 11.2396 21.9379 10.7478C20.8903 10.256 19.7658 10.0027 18.63 10.0027C17.4941 10.0027 16.3697 10.256 15.3221 10.7478C14.2745 11.2396 13.3248 11.96 12.5283 12.8672C10.9079 14.715 10 17.2017 10 19.792C10 22.3823 10.9079 24.869 12.5283 26.7168L26 42L39.4717 26.7168C41.0921 24.869 42 22.3823 42 19.792C42 17.2017 41.0921 14.715 39.4717 12.8672C38.6754 11.9596 37.7258 11.2386 36.6782 10.7463C35.6306 10.2541 34.506 10.0004 33.37 10Z" fill="#4BB9BC"/>
</svg>
